<svg xmlns="http://www.w3.org/2000/svg" viewBox="0 0 88.67 100"><defs><style>.cls-1{fill:#ededed;}</style></defs><title>platinum</title><g id="Layer_2" data-name="Layer 2"><g id="Layer_1-2" data-name="Layer 1"><path class="cls-1" d="M50.3,31.54V25.44H75.84v-12H69V0H57V13.42H31.57V0h-12V13.42H12.74v12H38.28v6.11Z"/><path class="cls-1" d="M64.07,100,44.33,81.77,24.61,100l2-26.8L0,69.15,22.17,54,8.78,30.67l25.69,7.87,9.87-25,9.87,25,25.69-7.87L66.5,54,88.67,69.15,62.11,73.2ZM44.33,65.56,50,70.8l-.56-7.7,7.63-1.17-6.37-4.36,3.85-6.69-7.38,2.26L44.33,46,41.5,53.14l-7.38-2.26L38,57.57,31.6,61.93l7.63,1.17-.56,7.7Z"/></g></g></svg>